<mxfile host="app.diagrams.net" modified="2023-10-19T11:09:43.803Z" agent="Mozilla/5.0 (Macintosh; Intel Mac OS X 10_15_7) AppleWebKit/537.36 (KHTML, like Gecko) Chrome/117.0.0.0 Safari/537.36" version="21.6.9" etag="wp-_KmkJHuukk3XudLLA" type="github">
  <diagram name="Page-1" id="QTd_iWqwSSS_5MvQ74Kt">
    <mxGraphModel>
      <root>
        <mxCell id="0" />
        <mxCell id="1" parent="0" />
      </root>
    </mxGraphModel>
  </diagram>
</mxfile>
